<svg width="32" height="32" viewBox="0 0 32 32" fill="none" xmlns="http://www.w3.org/2000/svg">
<path d="M7.83203 9.33398L9.8787 18.9953C10.16 20.326 11.3987 21.2313 12.7534 21.0967L21.8414 20.1873C22.9614 20.0753 23.8894 19.2727 24.1627 18.1807L25.96 10.9913C26.1707 10.1487 25.5347 9.33398 24.6667 9.33398H13.5827" stroke="#6B59CC" stroke-width="2" stroke-linecap="round" stroke-linejoin="round"/>
<path d="M7.83135 9.33398L6.96468 5.33398H4.66602" stroke="#6B59CC" stroke-width="2" stroke-linecap="round" stroke-linejoin="round"/>
<path d="M22.8124 25.6884C22.5431 25.6884 22.3244 25.9071 22.3271 26.1764C22.3271 26.4458 22.5458 26.6644 22.8151 26.6644C23.0845 26.6644 23.3031 26.4458 23.3031 26.1764C23.3018 25.9071 23.0831 25.6884 22.8124 25.6884" stroke="#6B59CC" stroke-width="2" stroke-linecap="round" stroke-linejoin="round"/>
<path d="M11.5963 25.6897C11.327 25.6897 11.1083 25.9084 11.111 26.1777C11.1083 26.4484 11.3283 26.6671 11.5977 26.6671C11.867 26.6671 12.0857 26.4484 12.0857 26.1791C12.0857 25.9084 11.867 25.6897 11.5963 25.6897" stroke="#6B59CC" stroke-width="2" stroke-linecap="round" stroke-linejoin="round"/>
</svg>
