<svg width="48" height="48" viewBox="0 0 48 48" fill="none" xmlns="http://www.w3.org/2000/svg">
<path fill-rule="evenodd" clip-rule="evenodd" d="M7.73595 24.7085L10.564 21.8805C12.126 20.3185 14.658 20.3185 16.22 21.8805L26.12 31.7805C27.682 33.3425 27.682 35.8745 26.12 37.4365L23.292 40.2645C21.73 41.8265 19.198 41.8265 17.636 40.2645L7.73595 30.3645C6.17395 28.8025 6.17395 26.2705 7.73595 24.7085V24.7085Z" stroke="#5946D7" stroke-width="2" stroke-linecap="round" stroke-linejoin="round"/>
<path d="M9.14039 31.7793L4.90039 36.0193" stroke="#5946D7" stroke-width="2" stroke-linecap="round" stroke-linejoin="round"/>
<path d="M12.5195 43.6209L16.7595 39.3809" stroke="#5946D7" stroke-width="2" stroke-linecap="round" stroke-linejoin="round"/>
<path d="M33.1915 7.73677L30.3635 4.90877C29.5815 4.12677 28.3155 4.12677 27.5355 4.90877L25.2935 7.15077C24.9175 7.52677 24.7075 8.03477 24.7075 8.56477V13.3928L21.8795 16.2208C21.0975 17.0028 21.0975 18.2688 21.8795 19.0488L28.9515 26.1208C29.7335 26.9028 30.9995 26.9028 31.7795 26.1208L34.6075 23.2928H39.4355C39.9655 23.2928 40.4755 23.0828 40.8495 22.7068L43.0915 20.4648C43.8735 19.6828 43.8735 18.4168 43.0915 17.6368L40.2635 14.8088" stroke="#5946D7" stroke-width="2" stroke-linecap="round" stroke-linejoin="round"/>
<path d="M30.5 19.5L28.5 17.5" stroke="#5946D7" stroke-width="2" stroke-linecap="round" stroke-linejoin="round"/>
<path d="M32 44V42" stroke="#5946D7" stroke-width="2" stroke-linecap="round" stroke-linejoin="round"/>
<path d="M44 32H42" stroke="#5946D7" stroke-width="2" stroke-linecap="round" stroke-linejoin="round"/>
<path d="M42 42L40 40" stroke="#5946D7" stroke-width="2" stroke-linecap="round" stroke-linejoin="round"/>
<path d="M16 4V6" stroke="#5946D7" stroke-width="2" stroke-linecap="round" stroke-linejoin="round"/>
<path d="M4 16H6" stroke="#5946D7" stroke-width="2" stroke-linecap="round" stroke-linejoin="round"/>
<path d="M6 6L8 8" stroke="#5946D7" stroke-width="2" stroke-linecap="round" stroke-linejoin="round"/>
<path d="M15 29L19 33" stroke="#5946D7" stroke-width="2" stroke-linecap="round" stroke-linejoin="round"/>
<path d="M43.0919 11.9802L38.8499 16.2222C38.0679 17.0042 36.8019 17.0042 36.0219 16.2222L31.7779 11.9802C30.9959 11.1982 30.9959 9.93216 31.7779 9.15216L36.0199 4.91016" stroke="#5946D7" stroke-width="2" stroke-linecap="round" stroke-linejoin="round"/>
</svg>
