<svg width="32" height="32" viewBox="0 0 32 32" fill="none" xmlns="http://www.w3.org/2000/svg">
<path opacity="0.1" d="M5.5 12L9 11.5L11 9H18V28.5L12.5 28L9 22.5H5.5V12Z" fill="#5946D7"/>
<path d="M1.33268 12V22.6667" stroke="#5946D7" stroke-width="2" stroke-linecap="round" stroke-linejoin="round"/>
<path d="M15.9987 4V9.33333" stroke="#5946D7" stroke-width="2" stroke-linecap="round" stroke-linejoin="round"/>
<path d="M12 4.00065H20" stroke="#5946D7" stroke-width="2" stroke-linecap="round" stroke-linejoin="round"/>
<path fill-rule="evenodd" clip-rule="evenodd" d="M26.6654 12.0007V14.6673H23.9987L21.332 9.33398H10.6654L7.9987 12.0007H5.33203V22.6673H9.33203L11.6307 27.2633C11.856 27.7153 12.3174 28.0007 12.8227 28.0007H21.332C22.068 28.0007 22.6654 27.4033 22.6654 26.6673V22.6673H26.6654V25.334H29.332C30.068 25.334 30.6654 24.7367 30.6654 24.0007V13.334C30.6654 12.598 30.068 12.0007 29.332 12.0007H26.6654Z" stroke="#5946D7" stroke-width="2" stroke-linecap="round" stroke-linejoin="round"/>
<path d="M5.33203 17.3346H1.33203" stroke="#5946D7" stroke-width="2" stroke-linecap="round" stroke-linejoin="round"/>
</svg>
