<svg width="48" height="48" viewBox="0 0 48 48" fill="none" xmlns="http://www.w3.org/2000/svg">
<path d="M15 26L24 44" stroke="#5946D7" stroke-width="2" stroke-linecap="round" stroke-linejoin="round"/>
<path fill-rule="evenodd" clip-rule="evenodd" d="M42.5771 22.946L34.9491 38.2C34.4751 39.15 33.3351 39.574 32.3711 39.132C29.6551 37.886 26.7251 37.282 23.7951 37.28C20.8651 37.282 17.9351 37.886 15.2191 39.132C14.2531 39.574 13.1131 39.15 12.6391 38.2L5.01314 22.946C4.52914 21.98 4.88914 20.774 5.84914 20.282C11.4691 17.4 17.6291 16.002 23.7931 16C29.9571 16.002 36.1171 17.4 41.7391 20.282C42.7011 20.776 43.0591 21.98 42.5771 22.946Z" stroke="#5946D7" stroke-width="2" stroke-linecap="round" stroke-linejoin="round"/>
<path d="M24.0001 10.0009C24.0001 9.66891 23.9701 9.33491 23.9101 9.00691" stroke="#5946D7" stroke-width="2" stroke-linecap="round" stroke-linejoin="round"/>
<path d="M24.0899 9.00691C24.0299 9.33491 23.9999 9.66891 23.9999 10.0009" stroke="#5946D7" stroke-width="2" stroke-linecap="round" stroke-linejoin="round"/>
<path d="M35.1733 5.75917C34.9253 5.53117 34.6613 5.32517 34.3853 5.14317" stroke="#5946D7" stroke-width="2" stroke-linecap="round" stroke-linejoin="round"/>
<path d="M28.7604 4.22683C28.3964 4.32083 28.0484 4.45683 27.7084 4.62083" stroke="#5946D7" stroke-width="2" stroke-linecap="round" stroke-linejoin="round"/>
<path d="M13.6128 5.14317C13.3368 5.32517 13.0728 5.53117 12.8248 5.75917" stroke="#5946D7" stroke-width="2" stroke-linecap="round" stroke-linejoin="round"/>
<path d="M19.2377 4.22683C19.6017 4.32083 19.9497 4.45683 20.2897 4.62083" stroke="#5946D7" stroke-width="2" stroke-linecap="round" stroke-linejoin="round"/>
<path d="M24 26V24" stroke="#5946D7" stroke-width="2" stroke-linecap="round" stroke-linejoin="round"/>
<path d="M24 16V18" stroke="#5946D7" stroke-width="2" stroke-linecap="round" stroke-linejoin="round"/>
</svg>
