<svg width="34" height="34" viewBox="0 0 34 34" fill="none" xmlns="http://www.w3.org/2000/svg">
<path d="M3 27V10V9L15 2.5L13 17H8.5V27H3Z" fill="#5946D7" fill-opacity="0.1"/>
<path d="M12.1953 9.91371H17.5497" stroke="#5946D7" stroke-width="2" stroke-linecap="round" stroke-linejoin="round"/>
<path d="M12.7479 17H8.49609V26.9208" stroke="#5946D7" stroke-width="2" stroke-linecap="round" stroke-linejoin="round"/>
<path d="M8.4952 26.9192H2.82617V10.7086C2.82617 9.73633 3.35353 8.8405 4.20375 8.36876L13.5732 3.16317C14.3819 2.71384 15.3652 2.71384 16.1739 3.16317L25.5434 8.36876C26.3928 8.84109 26.9195 9.73671 26.9195 10.7086V12.7467" stroke="#5946D7" stroke-width="2" stroke-linecap="round" stroke-linejoin="round"/>
<path fill-rule="evenodd" clip-rule="evenodd" d="M31.1711 25.2193C31.1711 23.6538 29.9021 22.3848 28.3366 22.3848H16.9986C15.4331 22.3848 14.1641 23.6538 14.1641 25.2193" fill="#5946D7" fill-opacity="0.1"/>
<path d="M31.1711 25.2193C31.1711 23.6538 29.9021 22.3848 28.3366 22.3848H16.9986C15.4331 22.3848 14.1641 23.6538 14.1641 25.2193" stroke="#5946D7" stroke-width="2" stroke-linecap="round" stroke-linejoin="round"/>
<path fill-rule="evenodd" clip-rule="evenodd" d="M14.1641 25.2188V29.754C14.1641 30.5367 14.7986 31.1712 15.5813 31.1712H16.9844C17.7671 31.1712 18.4017 30.5367 18.4017 29.754V28.8172H26.9335V29.754C26.9335 30.5367 27.5681 31.1712 28.3508 31.1712H29.7539C30.5366 31.1712 31.1711 30.5367 31.1711 29.754V25.2188" fill="#5946D7" fill-opacity="0.1"/>
<path d="M14.1641 25.2188V29.754C14.1641 30.5367 14.7986 31.1712 15.5813 31.1712H16.9844C17.7671 31.1712 18.4017 30.5367 18.4017 29.754V28.8172H26.9335V29.754C26.9335 30.5367 27.5681 31.1712 28.3508 31.1712H29.7539C30.5366 31.1712 31.1711 30.5367 31.1711 29.754V25.2188" stroke="#5946D7" stroke-width="2" stroke-linecap="round" stroke-linejoin="round"/>
<path d="M19.4606 25.6442H17.3418" stroke="#5946D7" stroke-width="2" stroke-linecap="round" stroke-linejoin="round"/>
<path d="M27.9938 25.6442H25.875" stroke="#5946D7" stroke-width="2" stroke-linecap="round" stroke-linejoin="round"/>
<path d="M29.0527 22.2946L31.1715 21.2359" stroke="#5946D7" stroke-width="2" stroke-linecap="round" stroke-linejoin="round"/>
<path d="M16.2899 22.2946L14.1641 21.2359" stroke="#5946D7" stroke-width="2" stroke-linecap="round" stroke-linejoin="round"/>
<path d="M19.2218 17C18.2381 17.0025 17.3846 17.6796 17.1583 18.6369L16.2598 22.4777L17.1583 18.6369C17.3846 17.6796 18.2381 17.0025 19.2218 17H26.1154C27.0991 17.0025 27.9526 17.6796 28.1789 18.6369L29.0774 22.4777" stroke="#5946D7" stroke-width="2" stroke-linecap="round" stroke-linejoin="round"/>
</svg>
