<svg width="32" height="32" viewBox="0 0 32 32" fill="none" xmlns="http://www.w3.org/2000/svg">
<path fill-rule="evenodd" clip-rule="evenodd" d="M29.2947 15.9607C29.2947 8.61801 23.3427 2.66602 16 2.66602V7.98335C20.4053 7.98335 23.9773 11.554 23.9773 15.9607H29.2947Z" fill="#5946D7" fill-opacity="0.1" stroke="#5946D7" stroke-width="2" stroke-linecap="round" stroke-linejoin="round"/>
<path d="M26.5609 15.9617V16.7004C26.5609 22.9417 21.5023 28.0004 15.2609 28.0004C9.01961 28.0004 3.96094 22.9417 3.96094 16.7004C3.96094 10.4591 9.01961 5.40039 15.2609 5.40039H15.9996" stroke="#5946D7" stroke-width="2" stroke-linecap="round" stroke-linejoin="round"/>
<path fill-rule="evenodd" clip-rule="evenodd" d="M18.2385 13.7231C19.8824 15.367 19.8824 18.0322 18.2385 19.676C16.5947 21.3199 13.9295 21.3199 12.2856 19.676C10.6418 18.0322 10.6418 15.367 12.2856 13.7231C13.9295 12.0793 16.5947 12.0793 18.2385 13.7231" fill="#5946D7" fill-opacity="0.1"/>
<path d="M18.2385 13.7231C19.8824 15.367 19.8824 18.0322 18.2385 19.676C16.5947 21.3199 13.9295 21.3199 12.2856 19.676C10.6418 18.0322 10.6418 15.367 12.2856 13.7231C13.9295 12.0793 16.5947 12.0793 18.2385 13.7231" stroke="#5946D7" stroke-width="2" stroke-linecap="round" stroke-linejoin="round"/>
</svg>
