<svg width="20" height="20" viewBox="0 0 20 20" fill="none" xmlns="http://www.w3.org/2000/svg">
<path fill-rule="evenodd" clip-rule="evenodd" d="M4.16732 10.8346V10.8346C3.7069 10.8346 3.33398 10.4617 3.33398 10.0013V10.0013C3.33398 9.54089 3.7069 9.16797 4.16732 9.16797V9.16797C4.62773 9.16797 5.00065 9.54089 5.00065 10.0013V10.0013C5.00065 10.4617 4.62773 10.8346 4.16732 10.8346Z" fill="white" stroke="white" stroke-width="1.5" stroke-linecap="round" stroke-linejoin="round"/>
<path fill-rule="evenodd" clip-rule="evenodd" d="M10.0013 10.8346V10.8346C9.54089 10.8346 9.16797 10.4617 9.16797 10.0013V10.0013C9.16797 9.54089 9.54089 9.16797 10.0013 9.16797V9.16797C10.4617 9.16797 10.8346 9.54089 10.8346 10.0013V10.0013C10.8346 10.4617 10.4617 10.8346 10.0013 10.8346Z" fill="white" stroke="white" stroke-width="1.5" stroke-linecap="round" stroke-linejoin="round"/>
<path fill-rule="evenodd" clip-rule="evenodd" d="M15.8333 10.8346V10.8346C15.3729 10.8346 15 10.4617 15 10.0013V10.0013C15 9.54089 15.3729 9.16797 15.8333 9.16797V9.16797C16.2937 9.16797 16.6667 9.54089 16.6667 10.0013V10.0013C16.6667 10.4617 16.2937 10.8346 15.8333 10.8346Z" fill="white" stroke="white" stroke-width="1.5" stroke-linecap="round" stroke-linejoin="round"/>
<path fill-rule="evenodd" clip-rule="evenodd" d="M4.16732 16.6667V16.6667C3.7069 16.6667 3.33398 16.2937 3.33398 15.8333V15.8333C3.33398 15.3729 3.7069 15 4.16732 15V15C4.62773 15 5.00065 15.3729 5.00065 15.8333V15.8333C5.00065 16.2937 4.62773 16.6667 4.16732 16.6667Z" fill="white" stroke="white" stroke-width="1.5" stroke-linecap="round" stroke-linejoin="round"/>
<path fill-rule="evenodd" clip-rule="evenodd" d="M10.0013 16.6667V16.6667C9.54089 16.6667 9.16797 16.2937 9.16797 15.8333V15.8333C9.16797 15.3729 9.54089 15 10.0013 15V15C10.4617 15 10.8346 15.3729 10.8346 15.8333V15.8333C10.8346 16.2937 10.4617 16.6667 10.0013 16.6667Z" fill="white" stroke="white" stroke-width="1.5" stroke-linecap="round" stroke-linejoin="round"/>
<path fill-rule="evenodd" clip-rule="evenodd" d="M15.8333 16.6667V16.6667C15.3729 16.6667 15 16.2937 15 15.8333V15.8333C15 15.3729 15.3729 15 15.8333 15V15C16.2937 15 16.6667 15.3729 16.6667 15.8333V15.8333C16.6667 16.2937 16.2937 16.6667 15.8333 16.6667Z" fill="white" stroke="white" stroke-width="1.5" stroke-linecap="round" stroke-linejoin="round"/>
<path fill-rule="evenodd" clip-rule="evenodd" d="M4.16732 5.00065V5.00065C3.7069 5.00065 3.33398 4.62773 3.33398 4.16732V4.16732C3.33398 3.7069 3.7069 3.33398 4.16732 3.33398V3.33398C4.62773 3.33398 5.00065 3.7069 5.00065 4.16732V4.16732C5.00065 4.62773 4.62773 5.00065 4.16732 5.00065Z" fill="white" stroke="white" stroke-width="1.5" stroke-linecap="round" stroke-linejoin="round"/>
<path fill-rule="evenodd" clip-rule="evenodd" d="M10.0013 5.00065V5.00065C9.54089 5.00065 9.16797 4.62773 9.16797 4.16732V4.16732C9.16797 3.7069 9.54089 3.33398 10.0013 3.33398V3.33398C10.4617 3.33398 10.8346 3.7069 10.8346 4.16732V4.16732C10.8346 4.62773 10.4617 5.00065 10.0013 5.00065Z" fill="white" stroke="white" stroke-width="1.5" stroke-linecap="round" stroke-linejoin="round"/>
<path fill-rule="evenodd" clip-rule="evenodd" d="M15.8333 5.00065V5.00065C15.3729 5.00065 15 4.62773 15 4.16732V4.16732C15 3.7069 15.3729 3.33398 15.8333 3.33398V3.33398C16.2937 3.33398 16.6667 3.7069 16.6667 4.16732V4.16732C16.6667 4.62773 16.2937 5.00065 15.8333 5.00065Z" fill="white" stroke="white" stroke-width="1.5" stroke-linecap="round" stroke-linejoin="round"/>
</svg>
