<svg width="48" height="48" viewBox="0 0 48 48" fill="none" xmlns="http://www.w3.org/2000/svg">
<path d="M6 18V12C6 9.79 7.79 8 10 8H38C40.21 8 42 9.79 42 12V36C42 38.21 40.21 40 38 40H26" stroke="white" stroke-width="3" stroke-linecap="round" stroke-linejoin="round"/>
<path d="M18 40L17.498 38.74C17.244 38.102 16.85 37.528 16.346 37.062V37.062C15.492 36.27 14.37 35.832 13.208 35.832H8.792C7.628 35.832 6.508 36.272 5.654 37.062V37.062C5.15 37.528 4.756 38.102 4.502 38.74L4 40" stroke="white" stroke-width="3" stroke-linecap="round" stroke-linejoin="round"/>
<path d="M13.4745 25.026C14.8405 26.392 14.8405 28.608 13.4745 29.976C12.1085 31.342 9.8925 31.342 8.5245 29.976C7.1585 28.61 7.1585 26.394 8.5245 25.026C9.8925 23.658 12.1085 23.658 13.4745 25.026" stroke="white" stroke-width="3" stroke-linecap="round" stroke-linejoin="round"/>
<path d="M22 30V18" stroke="white" stroke-width="3" stroke-linecap="round" stroke-linejoin="round"/>
<path d="M28 29.9994V23.3594" stroke="white" stroke-width="3" stroke-linecap="round" stroke-linejoin="round"/>
<path d="M34 29.9996V19.0996" stroke="white" stroke-width="3" stroke-linecap="round" stroke-linejoin="round"/>
</svg>
