<svg width="32" height="32" viewBox="0 0 32 32" fill="none" xmlns="http://www.w3.org/2000/svg">
<path fill-rule="evenodd" clip-rule="evenodd" d="M18.7327 21.4364V21.4364C17.8865 21.5775 17.021 21.3392 16.3663 20.7847C15.7116 20.2303 15.334 19.4158 15.334 18.5579V13.4437C15.334 12.5858 15.7116 11.7713 16.3663 11.2168C17.021 10.6624 17.8865 10.424 18.7327 10.5652V10.5652C21.3899 11.008 23.3374 13.307 23.3373 16.0008V16.0008C23.3374 18.6946 21.3899 20.9936 18.7327 21.4364V21.4364Z" fill="#5946D7" fill-opacity="0.1" stroke="#5946D7" stroke-width="2" stroke-linecap="round" stroke-linejoin="round"/>
<path d="M9.33203 13.3324L11.9998 12.6655" stroke="#5946D7" stroke-width="2" stroke-linecap="round" stroke-linejoin="round"/>
<path d="M9.33203 16.6684L11.9998 16.0014" stroke="#5946D7" stroke-width="2" stroke-linecap="round" stroke-linejoin="round"/>
<path fill-rule="evenodd" clip-rule="evenodd" d="M16.0011 28.0061V28.0061C9.37092 28.0061 3.99609 22.6313 3.99609 16.0011V16.0011C3.99609 9.37091 9.37092 3.99609 16.0011 3.99609V3.99609C22.6313 3.99609 28.0061 9.37091 28.0061 16.0011V16.0011C28.0061 22.6313 22.6313 28.0061 16.0011 28.0061V28.0061Z" stroke="#5946D7" stroke-width="2" stroke-linecap="round" stroke-linejoin="round"/>
<path d="M9.33203 20.0024L11.9998 19.3354" stroke="#5946D7" stroke-width="2" stroke-linecap="round" stroke-linejoin="round"/>
</svg>
