<svg width="32" height="32" viewBox="0 0 32 32" fill="none" xmlns="http://www.w3.org/2000/svg">
<path d="M5.156 16.471L7.04133 14.5857C8.08267 13.5444 9.77067 13.5444 10.812 14.5857L17.412 21.1857C18.4533 22.227 18.4533 23.915 17.412 24.9564L15.5267 26.8417C14.4853 27.883 12.7973 27.883 11.756 26.8417L5.156 20.2417C4.11467 19.2004 4.11467 17.5124 5.156 16.471Z" fill="#5946D7" fill-opacity="0.1" stroke="#5946D7" stroke-width="2" stroke-linecap="round" stroke-linejoin="round"/>
<path d="M6.09229 21.1855L3.26562 24.0122" stroke="#5946D7" stroke-width="2" stroke-linecap="round" stroke-linejoin="round"/>
<path d="M8.3457 29.0786L11.1724 26.252" stroke="#5946D7" stroke-width="2" stroke-linecap="round" stroke-linejoin="round"/>
<path fill-rule="evenodd" clip-rule="evenodd" d="M22.1276 5.15719L20.2423 3.27186C19.721 2.75053 18.877 2.75053 18.357 3.27186L16.8623 4.76653C16.6116 5.01719 16.4716 5.35586 16.4716 5.70919V8.92786L14.5863 10.8132C14.065 11.3345 14.065 12.1785 14.5863 12.6985L19.301 17.4132C19.8223 17.9345 20.6663 17.9345 21.1863 17.4132L23.0716 15.5279H26.2903C26.6436 15.5279 26.9836 15.3879 27.233 15.1372L28.7276 13.6425C29.249 13.1212 29.249 12.2772 28.7276 11.7572L26.8423 9.87186" fill="#5946D7" fill-opacity="0.1"/>
<path d="M22.1276 5.15719L20.2423 3.27186C19.721 2.75053 18.877 2.75053 18.357 3.27186L16.8623 4.76653C16.6116 5.01719 16.4716 5.35586 16.4716 5.70919V8.92786L14.5863 10.8132C14.065 11.3345 14.065 12.1785 14.5863 12.6985L19.301 17.4132C19.8223 17.9345 20.6663 17.9345 21.1863 17.4132L23.0716 15.5279H26.2903C26.6436 15.5279 26.9836 15.3879 27.233 15.1372L28.7276 13.6425C29.249 13.1212 29.249 12.2772 28.7276 11.7572L26.8423 9.87186" stroke="#5946D7" stroke-width="2" stroke-linecap="round" stroke-linejoin="round"/>
<path d="M20.3333 12.9993L19 11.666" stroke="#5946D7" stroke-width="2" stroke-linecap="round" stroke-linejoin="round"/>
<path d="M21.3327 29.3333V28" stroke="#5946D7" stroke-width="2" stroke-linecap="round" stroke-linejoin="round"/>
<path d="M29.3333 21.3327H28" stroke="#5946D7" stroke-width="2" stroke-linecap="round" stroke-linejoin="round"/>
<path d="M27.9994 27.9994L26.666 26.666" stroke="#5946D7" stroke-width="2" stroke-linecap="round" stroke-linejoin="round"/>
<path d="M10.6667 2.66602V3.99935" stroke="#5946D7" stroke-width="2" stroke-linecap="round" stroke-linejoin="round"/>
<path d="M2.66602 10.6667H3.99935" stroke="#5946D7" stroke-width="2" stroke-linecap="round" stroke-linejoin="round"/>
<path d="M4 4L5.33333 5.33333" stroke="#5946D7" stroke-width="2" stroke-linecap="round" stroke-linejoin="round"/>
<path d="M10 19.332L12.6667 21.9987" stroke="#5946D7" stroke-width="2" stroke-linecap="round" stroke-linejoin="round"/>
<path d="M28.7266 7.98677L25.8986 10.8148C25.3773 11.3361 24.5333 11.3361 24.0133 10.8148L21.184 7.98677C20.6626 7.46544 20.6626 6.62144 21.184 6.10144L24.012 3.27344" stroke="#5946D7" stroke-width="2" stroke-linecap="round" stroke-linejoin="round"/>
</svg>
