<svg width="20" height="20" viewBox="0 0 20 20" fill="none" xmlns="http://www.w3.org/2000/svg">
<path fill-rule="evenodd" clip-rule="evenodd" d="M1.9789 4.72497C2.22072 3.32106 3.33662 2.28906 4.74499 2.07476C6.09444 1.86944 7.94567 1.66699 9.99935 1.66699C12.053 1.66699 13.9043 1.86944 15.2537 2.07476C16.6621 2.28906 17.778 3.32105 18.0198 4.72497C18.1883 5.70342 18.3327 6.94637 18.3327 8.33366C18.3327 9.72095 18.1883 10.9639 18.0198 11.9424C17.778 13.3463 16.6621 14.3783 15.2537 14.5926C14.0192 14.7804 12.3647 14.9658 10.5194 14.996L5.42329 18.0074C4.86778 18.3356 4.16602 17.9352 4.16602 17.29V14.4536C3.03815 14.0786 2.18648 13.1475 1.9789 11.9424C1.81036 10.9639 1.66602 9.72095 1.66602 8.33366C1.66602 6.94637 1.81036 5.70342 1.9789 4.72497ZM4.99935 6.66699C4.99935 6.20676 5.37245 5.83366 5.83268 5.83366H14.166C14.6263 5.83366 14.9993 6.20676 14.9993 6.66699C14.9993 7.12723 14.6263 7.50033 14.166 7.50033H5.83268C5.37244 7.50033 4.99935 7.12723 4.99935 6.66699ZM4.99935 10.0003C4.99935 9.54009 5.37245 9.16699 5.83268 9.16699H9.16602C9.62625 9.16699 9.99935 9.54009 9.99935 10.0003C9.99935 10.4606 9.62625 10.8337 9.16602 10.8337H5.83268C5.37245 10.8337 4.99935 10.4606 4.99935 10.0003Z" fill="white"/>
</svg>
