<svg width="24" height="24" viewBox="0 0 24 24" fill="none" xmlns="http://www.w3.org/2000/svg">
<path d="M21 17H17" stroke="#7A7680" stroke-width="1.5" stroke-linecap="round" stroke-linejoin="round"/>
<path d="M11 17H3" stroke="#7A7680" stroke-width="1.5" stroke-linecap="round" stroke-linejoin="round"/>
<path d="M16.1213 14.8787C17.2929 16.0504 17.2929 17.9496 16.1213 19.1213C14.9496 20.2929 13.0504 20.2929 11.8787 19.1213C10.7071 17.9496 10.7071 16.0504 11.8787 14.8787C13.0504 13.7071 14.9496 13.7071 16.1213 14.8787" stroke="#7A7680" stroke-width="1.5" stroke-linecap="round" stroke-linejoin="round"/>
<path d="M3 7H7" stroke="#7A7680" stroke-width="1.5" stroke-linecap="round" stroke-linejoin="round"/>
<path d="M12.1213 4.87873C13.2929 6.05038 13.2929 7.94962 12.1213 9.12127C10.9496 10.2929 9.05038 10.2929 7.87873 9.12127C6.70709 7.94962 6.70709 6.05038 7.87873 4.87873C9.05038 3.70709 10.9496 3.70709 12.1213 4.87873" stroke="#7A7680" stroke-width="1.5" stroke-linecap="round" stroke-linejoin="round"/>
<path d="M13 7H21" stroke="#7A7680" stroke-width="1.5" stroke-linecap="round" stroke-linejoin="round"/>
</svg>
