<svg width="205" height="40" viewBox="0 0 205 40" fill="none" xmlns="http://www.w3.org/2000/svg">
<g clip-path="url(#clip0_5409_75282)">
<path d="M63.4008 12.2812C61.2693 12.2812 59.3664 13.1198 57.6924 14.7969C56.0287 16.474 55.1969 18.401 55.1969 20.5781C55.1969 22.4115 55.8052 23.9479 57.0217 25.1875C58.2487 26.4167 59.824 27.0312 61.7476 27.0312C63.8583 27.0312 65.7507 26.2135 67.4248 24.5781C69.1092 22.9323 69.9514 20.9792 69.9514 18.7188C69.9514 16.8854 69.3328 15.3542 68.0954 14.125C66.8581 12.8958 65.2932 12.2812 63.4008 12.2812ZM50.1748 20.8594C50.1748 17.4844 51.5369 14.5 54.2611 11.9062C56.9957 9.30208 60.1515 8 63.7283 8C67.0245 8 69.7227 9.02083 71.8231 11.0625C73.9234 13.0938 74.9736 15.5573 74.9736 18.4531C74.9736 20.7135 74.3445 22.8438 73.0864 24.8438C71.8283 26.8333 70.1594 28.4167 68.0798 29.5938C66.0107 30.7708 63.8115 31.3594 61.4824 31.3594C58.1863 31.3594 55.4777 30.3438 53.3565 28.3125C51.2353 26.2708 50.1748 23.7865 50.1748 20.8594Z" fill="#5946D7"/>
<path d="M97.3699 8.46875H102.158L97.4323 30.875H93.4395L85.2668 16.6094L82.2567 30.875H77.4685L82.1943 8.46875H86.187L94.3753 22.75L97.3699 8.46875Z" fill="#5946D7"/>
<path d="M109.504 26.5625H121.482L120.577 30.875H103.811L108.537 8.46875H124.991L124.102 12.7969H112.436L111.484 17.2812H120.577L119.657 21.5938H110.549L109.504 26.5625Z" fill="#5946D7"/>
<path d="M125.692 30.875L130.418 8.46875H139.87C141.762 8.46875 143.353 9.10938 144.642 10.3906C145.942 11.6719 146.592 13.1667 146.592 14.875C146.592 15.9792 146.4 17 146.015 17.9375C145.63 18.8646 145.162 19.5938 144.611 20.125C144.071 20.6562 143.535 21.1042 143.005 21.4688C142.474 21.8333 142.017 22.0781 141.632 22.2031L141.055 22.3906L144.065 30.875H139.074L136.423 23.0312H132.149L130.481 30.875H125.692ZM137.967 18.7188C138.944 18.7188 139.807 18.4219 140.556 17.8281C141.315 17.224 141.695 16.4219 141.695 15.4219C141.695 14.6927 141.476 14.0729 141.04 13.5625C140.603 13.0521 140.026 12.7969 139.308 12.7969H134.317L133.038 18.7188H137.967Z" fill="#5946D7"/>
<path d="M147.964 29.0156C147.964 28.3594 148.25 27.7604 148.822 27.2188C149.394 26.6667 150.054 26.3906 150.803 26.3906C151.489 26.3906 152.05 26.6042 152.487 27.0312C152.934 27.4583 153.158 27.974 153.158 28.5781C153.158 29.2865 152.872 29.901 152.3 30.4219C151.728 30.9323 151.068 31.1875 150.319 31.1875C149.633 31.1875 149.066 30.9688 148.619 30.5312C148.182 30.0938 147.964 29.5885 147.964 29.0156Z" fill="#5946D7"/>
<path d="M157.633 30.875L162.359 8.46875H171.811C173.703 8.46875 175.294 9.10938 176.583 10.3906C177.883 11.6719 178.533 13.1667 178.533 14.875C178.533 15.9792 178.341 17 177.956 17.9375C177.571 18.8646 177.103 19.5938 176.552 20.125C176.011 20.6562 175.476 21.1042 174.946 21.4688C174.415 21.8333 173.958 22.0781 173.573 22.2031L172.996 22.3906L176.006 30.875H171.015L168.364 23.0312H164.09L162.421 30.875H157.633ZM169.908 18.7188C170.885 18.7188 171.748 18.4219 172.497 17.8281C173.256 17.224 173.636 16.4219 173.636 15.4219C173.636 14.6927 173.417 14.0729 172.98 13.5625C172.544 13.0521 171.967 12.7969 171.249 12.7969H166.258L164.979 18.7188H169.908Z" fill="#5946D7"/>
<path d="M191.493 27.0312C192.855 27.0312 194.098 26.5312 195.221 25.5312C196.354 24.5312 197.082 23.2708 197.404 21.75L200.212 8.46875H205L202.193 21.75C201.6 24.5417 200.311 26.8438 198.325 28.6562C196.349 30.4583 193.999 31.3594 191.275 31.3594C188.779 31.3594 186.695 30.625 185.021 29.1562C183.357 27.6771 182.525 25.8073 182.525 23.5469C182.525 22.974 182.587 22.375 182.712 21.75L185.52 8.46875H190.308L187.5 21.75C187.417 22.1146 187.376 22.5 187.376 22.9062C187.376 24.125 187.76 25.1198 188.53 25.8906C189.31 26.651 190.297 27.0312 191.493 27.0312Z" fill="#5946D7"/>
<path d="M38.9375 16.2793L37.4398 16.0991C36.1921 15.949 35.1836 15.0302 34.7032 13.8669C34.2227 12.7036 34.2994 11.3605 35.0764 10.3711L36.0052 9.18843C36.3438 8.75485 36.3054 8.08448 35.9142 7.69409L32.2424 4.01424C31.8559 3.62545 31.1851 3.58386 30.7507 3.92304L29.5618 4.8598C28.5765 5.63612 27.2391 5.71131 26.0808 5.23119C24.9221 4.75087 24.0058 3.74301 23.8568 2.49562L23.6771 0.99196C23.6116 0.446382 23.1085 0 22.5591 0H17.3654C16.8159 0 16.3129 0.446382 16.249 0.99196L16.0689 2.49383C15.9191 3.74259 15.0012 4.75214 13.8413 5.23327C12.682 5.71411 11.3444 5.63784 10.3578 4.86117L9.17219 3.92784C8.74097 3.58866 8.07018 3.62865 7.68209 4.01744L4.00874 7.69889C3.62224 8.08608 3.58231 8.75805 3.9225 9.19323L4.85196 10.3783C5.62756 11.3672 5.70322 12.7081 5.22352 13.8703C4.74344 15.0334 3.73513 15.9535 2.48768 16.1031L0.991804 16.2825C0.44719 16.3465 0 16.8505 0 17.4025V22.6055C0 23.1559 0.445593 23.6567 0.991804 23.7239L2.49443 23.9047C3.73931 24.0545 4.74564 24.9701 5.22494 26.1308C5.70464 27.2925 5.62984 28.6343 4.85508 29.6232L3.92409 30.8116C3.5871 31.2451 3.62543 31.9155 4.01513 32.3059L7.68209 35.9874C8.07018 36.3745 8.74097 36.4177 9.17219 36.0786L10.3602 35.1418C11.3461 34.3645 12.6845 34.2887 13.8436 34.7696C15.0033 35.2507 15.9208 36.2592 16.0706 37.5077L16.2506 39.008C16.3161 39.5552 16.8175 40 17.3669 40H22.5607C23.1117 40 23.6132 39.5552 23.6771 39.008L23.8572 37.5071C24.007 36.2585 24.925 35.2488 26.0848 34.768C27.2446 34.2872 28.582 34.3637 29.5691 35.1404L30.7555 36.0738C31.1883 36.4129 31.8575 36.3729 32.2456 35.9842L35.9174 32.3027C36.307 31.9155 36.347 31.2435 36.0068 30.8068L35.0767 29.6227C34.2998 28.6335 34.2247 27.29 34.705 26.1269C35.184 24.9669 36.1896 24.0513 37.4337 23.9015L38.9359 23.7207C39.4821 23.6551 39.9277 23.1559 39.9277 22.6023V17.3993C39.9293 16.8457 39.4853 16.3449 38.9375 16.2793Z" fill="#5946D7"/>
<path fill-rule="evenodd" clip-rule="evenodd" d="M19.9638 33C27.1306 33 32.9403 27.1797 32.9403 20C32.9403 12.8203 27.1306 7 19.9638 7C12.7971 7 6.98735 12.8203 6.98735 20C6.98735 27.1797 12.7971 33 19.9638 33Z" fill="white"/>
<path fill-rule="evenodd" clip-rule="evenodd" d="M12.2243 26.3157H19.741V26.6463C19.741 27.403 20.3552 28.018 21.1128 28.018H22.771C23.5282 28.018 24.1423 27.4019 24.1423 26.6463V25.3542C24.644 24.8071 24.9536 24.0732 24.9536 23.2645V19.9327C24.9547 18.8115 24.3353 17.2663 23.3873 16.4332L23.3736 16.4167C23.3619 16.4022 23.3502 16.388 23.3357 16.3737L22.4495 15.4945C23.1844 15.3231 23.9756 14.69 23.9756 14.0405C23.9756 13.2838 22.9543 13.0153 22.0826 13.0153C21.1711 13.0153 21.0653 13.6574 21.0545 14.1111L18.7681 11.8448C18.3036 11.372 17.4227 11 16.7641 11H15.6076C14.6339 11.4739 13.7486 12.1017 12.9833 12.8519H16.5195C16.7997 12.8519 17.32 12.7399 17.6415 13.0153L19.9632 15.8394H10.8843C10.3251 17.062 10.0048 18.417 9.9831 19.8446H18.1091C18.1091 21.2168 17.3968 22.3285 16.5195 22.3285H10.254C10.6075 23.8136 11.2917 25.1701 12.2243 26.3157ZM23.075 24.1061C23.1416 24.0138 23.1901 23.9225 23.2221 23.8313C23.4177 23.2603 23.0121 22.7382 23.0121 22.7382H20.3216L18.5266 24.8554H20.2726L21.8493 24.858C22.2869 24.719 22.5961 24.5545 22.8139 24.3789C22.9248 24.2903 23.0095 24.1979 23.075 24.1061ZM22.1403 20.92C22.2946 20.9161 22.4281 20.9128 22.5305 20.9128C23.3016 20.9128 23.9261 20.2484 23.9261 19.4286C23.9261 18.6082 23.3016 17.9423 22.5305 17.9423C21.7605 17.9423 19.2424 19.4631 19.2424 20.2824C19.2424 20.9926 21.1349 20.9452 22.1403 20.92Z" fill="#5946D7"/>
</g>
<defs>
<clipPath id="clip0_5409_75282">
<rect width="205" height="40" fill="white"/>
</clipPath>
</defs>
</svg>
