<svg width="12" height="12" viewBox="0 0 12 12" fill="none" xmlns="http://www.w3.org/2000/svg">
<g clip-path="url(#clip0_5406_81089)">
<path d="M6.71167 0.588874L8.2151 3.7603L11.294 4.08687C11.4498 4.10199 11.5976 4.16322 11.7185 4.26272C11.8394 4.36223 11.9279 4.4955 11.9727 4.64554C12.0175 4.79557 12.0165 4.95554 11.97 5.10504C11.9235 5.25454 11.8334 5.38678 11.7114 5.48487L9.25653 7.50345L10.016 10.8969C10.0499 11.0477 10.0387 11.2052 9.98376 11.3497C9.92883 11.4942 9.83258 11.6194 9.70702 11.7096C9.58146 11.7998 9.43213 11.851 9.27764 11.8569C9.12316 11.8629 8.97034 11.8232 8.83824 11.7429L5.99938 10.0157L3.15795 11.742C3.02578 11.8222 2.87297 11.8617 2.71851 11.8557C2.56405 11.8498 2.41475 11.7985 2.28918 11.7084C2.1636 11.6182 2.06729 11.4932 2.01221 11.3487C1.95713 11.2043 1.94572 11.0469 1.97938 10.896L2.74224 7.50345L0.287381 5.48487C0.166199 5.38651 0.0769686 5.25437 0.0310131 5.10521C-0.0149423 4.95605 -0.0155513 4.7966 0.0292636 4.6471C0.0740784 4.49759 0.162297 4.36477 0.282724 4.26548C0.403152 4.1662 0.550359 4.10493 0.705667 4.08945L3.78367 3.76287L5.2871 0.588874C5.35109 0.454153 5.45199 0.340345 5.57806 0.260657C5.70414 0.18097 5.85023 0.138672 5.99938 0.138672C6.14853 0.138672 6.29462 0.18097 6.4207 0.260657C6.54678 0.340345 6.64767 0.454153 6.71167 0.588874Z" fill="#FF9431"/>
</g>
<defs>
<clipPath id="clip0_5406_81089">
<rect width="12" height="12" fill="white"/>
</clipPath>
</defs>
</svg>
