<svg width="24" height="24" viewBox="0 0 24 24" fill="none" xmlns="http://www.w3.org/2000/svg">
<path fill-rule="evenodd" clip-rule="evenodd" d="M18.9645 16.61L17.7915 15.437C17.2055 14.851 16.2555 14.851 15.6705 15.437L14.7485 16.359C14.5425 16.565 14.2305 16.634 13.9645 16.517C12.6285 15.932 11.3085 15.045 10.1315 13.868C8.95954 12.696 8.07554 11.382 7.48954 10.051C7.36754 9.77597 7.43854 9.45297 7.65154 9.23997L8.47754 8.41397C9.14854 7.74297 9.14854 6.79397 8.56254 6.20797L7.38954 5.03497C6.60854 4.25397 5.34254 4.25397 4.56154 5.03497L3.90954 5.68597C3.16854 6.42697 2.85954 7.49597 3.05954 8.55597C3.55354 11.169 5.07154 14.03 7.52054 16.479C9.96954 18.928 12.8305 20.446 15.4435 20.94C16.5035 21.14 17.5725 20.831 18.3135 20.09L18.9645 19.439C19.7455 18.658 19.7455 17.392 18.9645 16.61V16.61Z" stroke="#6B59CC" stroke-width="1.5" stroke-linecap="round" stroke-linejoin="round"/>
<path opacity="0.5" d="M13 6.99184C14.031 6.97784 15.067 7.35984 15.854 8.14684C16.641 8.93384 17.023 9.96985 17.009 11.0009M13 2.96484C15.056 2.96484 17.113 3.74984 18.682 5.31884C20.251 6.88784 21.036 8.94485 21.036 11.0008" stroke="#6B59CC" stroke-width="1.5" stroke-linecap="round" stroke-linejoin="round"/>
</svg>
