<svg xmlns="http://www.w3.org/2000/svg" version="1.1" xmlns:xlink="http://www.w3.org/1999/xlink" width="128" height="128"><svg width="128" height="128" viewBox="0 0 128 128" fill="none" xmlns="http://www.w3.org/2000/svg">
<path d="M124.826 52.0939L120.024 51.5172C116.025 51.0367 112.791 48.0966 111.251 44.3741C109.711 40.6514 109.957 36.3538 112.448 33.1875L115.425 29.403C116.511 28.0155 116.388 25.8703 115.133 24.6211L103.363 12.8456C102.124 11.6015 99.9731 11.4683 98.5805 12.5537L94.7691 15.5514C91.6105 18.0356 87.323 18.2762 83.6098 16.7398C79.8952 15.2028 76.9576 11.9776 76.4799 7.98599L75.904 3.17427C75.6941 1.42842 74.0813 0 72.32 0H55.6698C53.9085 0 52.2957 1.42842 52.0909 3.17427L51.5135 7.98027C51.0335 11.9763 48.0909 15.2069 44.3723 16.7465C40.6558 18.2852 36.3677 18.0411 33.2049 15.5558L29.4042 12.5691C28.0218 11.4837 25.8714 11.6117 24.6272 12.8558L12.8512 24.6365C11.6122 25.8754 11.4842 28.0258 12.5747 29.4183L15.5544 33.2105C18.0408 36.3749 18.2834 40.666 16.7455 44.385C15.2065 48.107 11.974 51.0512 7.97501 51.53L3.17952 52.1042C1.4336 52.3089 0 53.9217 0 55.688V72.3376C0 74.0988 1.42848 75.7013 3.17952 75.9163L7.99663 76.495C11.9874 76.9743 15.2135 79.9043 16.7501 83.6185C18.2879 87.3359 18.0481 91.6298 15.5644 94.7943L12.5798 98.597C11.4995 99.9845 11.6224 102.13 12.8717 103.379L24.6272 115.16C25.8714 116.399 28.0218 116.537 29.4042 115.451L33.2126 112.454C36.3731 109.966 40.6639 109.724 44.3798 111.263C48.0974 112.802 51.0388 116.029 51.519 120.024L52.096 124.826C52.3059 126.577 53.9136 128 55.6749 128H72.3251C74.0915 128 75.6992 126.577 75.904 124.826L76.4812 120.023C76.9614 116.027 79.9043 112.796 83.6226 111.258C87.3407 109.719 91.6281 109.964 94.7926 112.449L98.5958 115.436C99.9834 116.521 102.129 116.393 103.373 115.149L115.144 103.369C116.393 102.13 116.521 99.9794 115.43 98.5817L112.449 94.7925C109.958 91.6273 109.717 87.3279 111.257 83.6061C112.793 79.8941 116.016 76.9641 120.005 76.4848L124.82 75.9061C126.572 75.6962 128 74.0988 128 72.3273V55.6778C128.005 53.9063 126.582 52.3038 124.826 52.0939Z" fill="#5946D7"></path>
<path fill-rule="evenodd" clip-rule="evenodd" d="M64 105.6C86.975 105.6 105.6 86.9751 105.6 64C105.6 41.025 86.975 22.4 64 22.4C41.025 22.4 22.4 41.025 22.4 64C22.4 86.9751 41.025 105.6 64 105.6Z" fill="white"></path>
<path fill-rule="evenodd" clip-rule="evenodd" d="M39.1885 84.2102H63.2856V85.2681C63.2856 87.6895 65.2545 89.6575 67.6833 89.6575H72.9993C75.4265 89.6575 77.3954 87.6861 77.3954 85.2681V81.1334C79.0036 79.3827 79.9963 77.0343 79.9963 74.4465V63.7846C79.9996 60.1967 78.0141 55.252 74.9748 52.5861L74.9311 52.5333C74.8934 52.4871 74.8561 52.4415 74.8093 52.3959L71.9685 49.5823C74.3246 49.0338 76.8609 47.0081 76.8609 44.9297C76.8609 42.5083 73.5866 41.6491 70.7921 41.6491C67.8703 41.6491 67.5311 43.7037 67.4963 45.1555L60.1668 37.9033C58.6777 36.3903 55.8535 35.2 53.7423 35.2H50.0348C46.9132 36.7165 44.0751 38.7255 41.6217 41.1261H52.958C53.8565 41.1261 55.5242 40.7678 56.555 41.6491L63.9979 50.686H34.8927C33.1003 54.5983 32.0734 58.9344 32.0038 63.5027H58.054C58.054 67.8938 55.7707 71.4512 52.958 71.4512H32.8721C34.0054 76.2034 36.1988 80.5443 39.1885 84.2102ZM73.9738 77.1396C74.1872 76.8441 74.3428 76.5521 74.4453 76.26C75.0724 74.4329 73.7719 72.7621 73.7719 72.7621H65.1469L59.3925 79.5372H64.9897L70.0443 79.5457C71.4473 79.1008 72.4384 78.5744 73.1366 78.0124C73.4923 77.7288 73.7637 77.4334 73.9738 77.1396ZM70.9772 66.944C71.472 66.9316 71.8998 66.9209 72.2283 66.9209C74.7001 66.9209 76.7021 64.7949 76.7021 62.1715C76.7021 59.5463 74.7001 57.4153 72.2283 57.4153C69.7597 57.4153 61.6873 62.2819 61.6873 64.9036C61.6873 67.1765 67.7541 67.0246 70.9772 66.944Z" fill="#5946D7"></path>
</svg><style>@media (prefers-color-scheme: light) { :root { filter: none; } }
@media (prefers-color-scheme: dark) { :root { filter: none; } }
</style></svg>